<svg width="576" height="512" xmlns="http://www.w3.org/2000/svg">

 <g>
  <title>background</title>
  <rect fill="none" id="canvas_background" height="402" width="582" y="-1" x="-1"/>
 </g>
 <g>
  <title>Layer 1</title>
  <path fill="#d97706" id="svg_1" d="m576,128l0,160c0,17.67 -14.31,32 -32,32s-32,-14.33 -32,-32l0,-82.7l-169.4,169.4c-6.2,6.2 -14.4,9.3 -22.6,9.3s-16.38,-3.125 -22.62,-9.375l-105.38,-105.325l-137.4,137.4c-6.22,6.2 -14.41,9.3 -22.6,9.3c-18.28,0 -32,-14.95 -32,-32c0,-8.188 3.125,-16.38 9.375,-22.62l160,-160c6.225,-6.28 14.425,-9.38 22.625,-9.38s16.38,3.125 22.62,9.375l105.38,105.425l146.8,-146.8l-82.8,0c-17.69,0 -32,-14.33 -32,-32s14.31,-32 32,-32l160,0c16.8,0 32,13.4 32,32z"/>
 </g>
</svg>