<svg width="64" height="64" xmlns="http://www.w3.org/2000/svg">

 <g>
  <title>background</title>
  <rect fill="none" id="canvas_background" height="402" width="582" y="-1" x="-1"/>
 </g>
 <g>
  <title>Layer 1</title>
  <path fill="#6366f1" id="svg_1" d="m24,57a4,4 0 0 1 -4,-4l0,-40a4,4 0 0 1 8,0l0,40a4,4 0 0 1 -4,4z" class="cls-1"/>
  <path fill="#6366f1" id="svg_2" d="m8,57a4,4 0 0 1 -4,-4l0,-17a4,4 0 0 1 8,0l0,17a4,4 0 0 1 -4,4z" class="cls-1"/>
  <path fill="#6366f1" id="svg_3" d="m56,57a4,4 0 0 1 -4,-4l0,-12a4,4 0 0 1 8,0l0,12a4,4 0 0 1 -4,4z" class="cls-1"/>
  <path fill="#6366f1" id="svg_4" d="m40,57a4,4 0 0 1 -4,-4l0,-25a4,4 0 0 1 8,0l0,25a4,4 0 0 1 -4,4z" class="cls-2"/>
 </g>
</svg>