<svg width="32" height="32" xmlns="http://www.w3.org/2000/svg">

 <g>
  <title>background</title>
  <rect fill="none" id="canvas_background" height="402" width="582" y="-1" x="-1"/>
 </g>
 <g>
  <title>Layer 1</title>
  <path fill="#059669" stroke-width="0px" id="svg_1" d="m12,4c2.76,0 5,2.24 5,5s-2.24,5 -5,5s-5,-2.24 -5,-5c0,-2.76 2.24,-5 5,-5m0,-2c-3.87,0 -7,3.13 -7,7s3.13,7 7,7s7,-3.13 7,-7s-3.13,-7 -7,-7z" class="cls-2"/>
  <path fill="#059669" stroke-width="0px" id="svg_2" d="m22,30l-2,0l0,-5c0,-2.76 -2.24,-5 -5,-5l-6,0c-2.76,0 -5,2.24 -5,5l0,5l-2,0l0,-5c0,-3.86 3.14,-7 7,-7l6,0c3.86,0 7,3.14 7,7l0,5z" class="cls-2"/>
  <path fill="#059669" stroke-width="0px" id="svg_3" d="m20,2l0,2c2.76,0 5,2.24 5,5s-2.24,5 -5,5l0,2c3.87,0 7,-3.13 7,-7s-3.13,-7 -7,-7z" class="cls-2"/>
  <path fill="#059669" stroke-width="0px" id="svg_4" d="m30,30l-2,0l0,-5c0,-2.76 -2.24,-5 -5,-5l0,-2c3.86,0 7,3.14 7,7l0,5z" class="cls-2"/>
 </g>
</svg>